<svg xmlns="http://www.w3.org/2000/svg" viewBox="0 0 249.62 58.25"><defs><style>.cls-1{fill:#1f75fe;stroke:#ff4f00;stroke-width:0.25px;}.cls-1,.cls-2{stroke-miterlimit:10;}.cls-2{font-size:31.92px;fill:#fff;stroke:#000;font-family:AcidsRegular, Acids;}.cls-3{fill:#ff4f00;}</style></defs><title>Recurso 3web</title><g id="Capa_2" data-name="Capa 2"><g id="Capa_1-2" data-name="Capa 1"><g id="Capa_2-2" data-name="Capa 2"><g id="Capa_1-2-2" data-name="Capa 1-2"><path class="cls-1" d="M47.76,7.15S14.31,17,6.88,13.33C6.26,12.71,6.26,4,14.3,4,14.92,4,15.54-.91,6.88.32,6.26.94-9.84,14,10,22.62c1.85,0,35.3-3.72,35.3-3.72S52.72,12.1,47.76,7.15Z"/><path class="cls-1" d="M16.17,22.62V36.25s-2.47.62-6.19-2.48c.62,1.86,0,8.68,6.19,5.58.62.62,0,16.1,0,16.1s4.34,5.58,7.43.62c.61-1.86,0-12.37,0-12.37L36,39.36s1.24-7.42-1.24-9.28c-.61.61-8,5.57-9.89,4.94l2.47-13Z"/></g></g><text class="cls-2" transform="translate(39.64 50.29)">REDY AUTODIDACTA<tspan class="cls-3" x="204.12" y="0">.</tspan></text></g></g></svg>